<svg width="16" height="12" viewBox="0 0 16 12" fill="none" xmlns="http://www.w3.org/2000/svg">
<path d="M15.7277 1.61816L5.88447 11.7214C5.79874 11.8097 5.69687 11.8798 5.5847 11.9276C5.47253 11.9754 5.35227 12 5.23082 12C5.10937 12 4.98911 11.9754 4.87694 11.9276C4.76477 11.8798 4.6629 11.8097 4.57717 11.7214L0.270752 7.30124C0.184913 7.21314 0.116822 7.10854 0.070366 6.99342C0.0239104 6.8783 1.2791e-09 6.75492 0 6.63032C-1.2791e-09 6.50572 0.0239104 6.38234 0.070366 6.26722C0.116822 6.15211 0.184913 6.04751 0.270752 5.9594C0.356591 5.8713 0.458496 5.80141 0.57065 5.75372C0.682804 5.70604 0.80301 5.6815 0.924404 5.6815C1.0458 5.6815 1.166 5.70604 1.27816 5.75372C1.39031 5.80141 1.49222 5.8713 1.57806 5.9594L5.23159 9.70945L14.4219 0.277904C14.5953 0.0999648 14.8304 0 15.0756 0C15.3208 0 15.5559 0.0999648 15.7292 0.277904C15.9026 0.455842 16 0.697179 16 0.948823C16 1.20047 15.9026 1.4418 15.7292 1.61974L15.7277 1.61816Z" fill="#7300E6"/>
</svg>
