<svg width="15" height="16" viewBox="0 0 15 16" fill="none" xmlns="http://www.w3.org/2000/svg">
<path fill-rule="evenodd" clip-rule="evenodd" d="M7.80943 4.73199C8.01314 4.56233 8.2759 4.4805 8.53992 4.50451C8.80395 4.52851 9.04764 4.65637 9.21743 4.85999L11.3004 7.35999C11.4627 7.5645 11.5385 7.82435 11.5118 8.08404C11.485 8.34372 11.3578 8.58265 11.1572 8.74978C10.9567 8.9169 10.6987 8.99898 10.4385 8.97846C10.1782 8.95795 9.93632 8.83648 9.76443 8.63999L7.68143 6.13999C7.51176 5.93628 7.42994 5.67352 7.45394 5.4095C7.47794 5.14547 7.60581 4.90178 7.80943 4.73199Z" fill="#7300E6"/>
<path fill-rule="evenodd" clip-rule="evenodd" d="M7.80944 11.268C7.60567 11.0984 7.47761 10.8547 7.45342 10.5907C7.42923 10.3267 7.51089 10.0638 7.68044 9.86L9.76444 7.36C9.84732 7.25555 9.95025 7.16872 10.0672 7.10464C10.1841 7.04055 10.3127 7.0005 10.4453 6.98683C10.578 6.97317 10.712 6.98617 10.8395 7.02507C10.9671 7.06397 11.0855 7.12798 11.188 7.21335C11.2904 7.29871 11.3748 7.4037 11.436 7.52213C11.4973 7.64057 11.5342 7.77006 11.5447 7.90299C11.5552 8.03592 11.539 8.1696 11.497 8.29617C11.4551 8.42274 11.3882 8.53965 11.3004 8.64001L9.21744 11.14C9.04765 11.3436 8.80396 11.4715 8.53994 11.4955C8.27591 11.5195 8.01315 11.4377 7.80944 11.268Z" fill="#7300E6"/>
<path fill-rule="evenodd" clip-rule="evenodd" d="M0.498536 8C0.498536 7.73478 0.603892 7.48043 0.791428 7.29289C0.978965 7.10536 1.23332 7 1.49854 7L8.99854 7C9.26375 7 9.51811 7.10536 9.70564 7.29289C9.89318 7.48043 9.99854 7.73478 9.99854 8C9.99854 8.26522 9.89318 8.51957 9.70564 8.70711C9.51811 8.89464 9.26375 9 8.99854 9L1.49854 9C1.23332 9 0.978965 8.89464 0.791428 8.70711C0.603892 8.51957 0.498536 8.26522 0.498536 8ZM14.9985 15C14.9985 15.2652 14.8932 15.5196 14.7056 15.7071C14.5181 15.8946 14.2638 16 13.9985 16L4.99854 16C4.73332 16 4.47896 15.8946 4.29143 15.7071C4.10389 15.5196 3.99854 15.2652 3.99854 15C3.99854 14.7348 4.10389 14.4804 4.29143 14.2929C4.47897 14.1054 4.73332 14 4.99854 14L13.9985 14C14.2638 14 14.5181 14.1054 14.7056 14.2929C14.8932 14.4804 14.9985 14.7348 14.9985 15ZM14.9985 1C14.9985 1.26522 14.8932 1.51957 14.7056 1.70711C14.5181 1.89464 14.2638 2 13.9985 2L4.99854 2C4.73332 2 4.47897 1.89464 4.29143 1.70711C4.10389 1.51957 3.99854 1.26522 3.99854 0.999999C3.99854 0.734783 4.10389 0.480428 4.29143 0.292892C4.47897 0.105355 4.73332 -8.97414e-07 4.99854 -8.74228e-07L13.9985 -8.74228e-08C14.2638 -6.42368e-08 14.5181 0.105356 14.7056 0.292892C14.8932 0.480429 14.9985 0.734784 14.9985 1Z" fill="#7300E6"/>
<path fill-rule="evenodd" clip-rule="evenodd" d="M4.99854 16C4.73332 16 4.47896 15.8946 4.29143 15.7071C4.10389 15.5196 3.99854 15.2652 3.99854 15L3.99854 12C3.99854 11.7348 4.10389 11.4804 4.29143 11.2929C4.47897 11.1054 4.73332 11 4.99854 11C5.26375 11 5.51811 11.1054 5.70564 11.2929C5.89318 11.4804 5.99854 11.7348 5.99854 12L5.99854 15C5.99854 15.2652 5.89318 15.5196 5.70564 15.7071C5.51811 15.8946 5.26375 16 4.99854 16ZM4.99854 5C4.73332 5 4.47897 4.89464 4.29143 4.70711C4.10389 4.51957 3.99854 4.26522 3.99854 4L3.99854 0.999999C3.99854 0.734783 4.10389 0.480428 4.29143 0.292892C4.47897 0.105355 4.73332 -8.97414e-07 4.99854 -8.74228e-07C5.26375 -8.51042e-07 5.51811 0.105355 5.70564 0.292892C5.89318 0.480428 5.99854 0.734783 5.99854 0.999999L5.99854 4C5.99854 4.26522 5.89318 4.51957 5.70564 4.70711C5.51811 4.89464 5.26375 5 4.99854 5ZM13.9985 16C13.7333 16 13.479 15.8946 13.2914 15.7071C13.1039 15.5196 12.9985 15.2652 12.9985 15L12.9985 1C12.9985 0.734783 13.1039 0.480429 13.2914 0.292892C13.479 0.105356 13.7333 -1.10609e-07 13.9985 -8.74228e-08C14.2638 -6.42368e-08 14.5181 0.105356 14.7056 0.292892C14.8932 0.480429 14.9985 0.734784 14.9985 1L14.9985 15C14.9985 15.2652 14.8932 15.5196 14.7056 15.7071C14.5181 15.8946 14.2638 16 13.9985 16Z" fill="#7300E6"/>
</svg>
