<svg width="15" height="16" viewBox="0 0 15 16" fill="none" xmlns="http://www.w3.org/2000/svg">
<path fill-rule="evenodd" clip-rule="evenodd" d="M13.2485 1.75L5.74854 1.75L5.74854 4C5.74854 4.19891 5.66952 4.38968 5.52887 4.53033C5.38821 4.67098 5.19745 4.75 4.99854 4.75C4.79962 4.75 4.60886 4.67098 4.46821 4.53033C4.32755 4.38968 4.24854 4.19891 4.24854 4L4.24854 0.999999C4.24854 0.801086 4.32755 0.61032 4.46821 0.469668C4.60886 0.329017 4.79962 0.249999 4.99854 0.249999L13.9985 0.25C14.1974 0.25 14.3882 0.329018 14.5289 0.469669C14.6695 0.610321 14.7485 0.801087 14.7485 1L14.7485 15C14.7485 15.1989 14.6695 15.3897 14.5289 15.5303C14.3882 15.671 14.1974 15.75 13.9985 15.75L4.99854 15.75C4.79962 15.75 4.60886 15.671 4.46821 15.5303C4.32755 15.3897 4.24854 15.1989 4.24854 15L4.24854 12C4.24854 11.8011 4.32755 11.6103 4.46821 11.4697C4.60886 11.329 4.79962 11.25 4.99854 11.25C5.19745 11.25 5.38821 11.329 5.52887 11.4697C5.66952 11.6103 5.74854 11.8011 5.74854 12L5.74854 14.25L13.2485 14.25L13.2485 1.75Z" fill="#7300E6"/>
<path fill-rule="evenodd" clip-rule="evenodd" d="M8.002 11.244C7.80398 11.262 7.60692 11.2006 7.45413 11.0733C7.30131 10.9461 7.20523 10.7634 7.18708 10.5653C7.16894 10.3674 7.23025 10.1702 7.35734 10.0173L8.41166 8.75253L1.01397 8.75253C0.815057 8.75253 0.624291 8.67352 0.483639 8.53286C0.342987 8.39221 0.26397 8.20145 0.26397 8.00253C0.26397 7.80362 0.342987 7.61286 0.483639 7.4722C0.624291 7.33155 0.815057 7.25253 1.01397 7.25253L8.44712 7.25254L7.38896 5.98254C7.26171 5.82975 7.20034 5.63269 7.21835 5.43466C7.23634 5.23669 7.3322 5.05396 7.48485 4.92663C7.63764 4.79938 7.8347 4.73801 8.03273 4.75601C8.23075 4.77402 8.41351 4.86992 8.54085 5.02263L10.5589 7.44463L10.5663 7.45213C10.6192 7.50578 10.6639 7.56722 10.6987 7.63443C10.7446 7.72326 10.7723 7.82037 10.7802 7.92007C10.7818 7.94061 10.7826 7.96117 10.7825 7.9817L10.7825 7.98296C10.7825 8.00889 10.7812 8.03492 10.7785 8.06095C10.761 8.23143 10.6857 8.38999 10.5663 8.51093L10.5589 8.51843L8.51007 10.9774C8.38274 11.1301 8.2 11.226 8.002 11.244Z" fill="#7300E6"/>
</svg>
