<svg width="16" height="16" viewBox="0 0 16 16" fill="none" xmlns="http://www.w3.org/2000/svg">
<path fill-rule="evenodd" clip-rule="evenodd" d="M9.25 14.25H1.75V1.75H9.25V4C9.25 4.19891 9.32902 4.38968 9.46967 4.53033C9.61032 4.67098 9.80109 4.75 10 4.75C10.1989 4.75 10.3897 4.67098 10.5303 4.53033C10.671 4.38968 10.75 4.19891 10.75 4V1C10.75 0.801088 10.671 0.610322 10.5303 0.46967C10.3897 0.329018 10.1989 0.25 10 0.25H1C0.801088 0.25 0.610322 0.329018 0.46967 0.46967C0.329018 0.610322 0.25 0.801088 0.25 1V15C0.25 15.1989 0.329018 15.3897 0.46967 15.5303C0.610322 15.671 0.801087 15.75 1 15.75H10C10.1989 15.75 10.3897 15.671 10.5303 15.5303C10.671 15.3897 10.75 15.1989 10.75 15V12C10.75 11.8011 10.671 11.6103 10.5303 11.4697C10.3897 11.329 10.1989 11.25 10 11.25C9.80109 11.25 9.61032 11.329 9.46967 11.4697C9.32902 11.6103 9.25 11.8011 9.25 12V14.25ZM12.2229 11.0733C12.3757 11.2006 12.5727 11.262 12.7707 11.244C12.9687 11.226 13.1515 11.1301 13.2788 10.9774L15.3276 8.51843L15.335 8.51093C15.4544 8.38999 15.5297 8.23143 15.5473 8.06095C15.55 8.03492 15.5513 8.00889 15.5512 7.98296L15.5512 7.9817C15.5513 7.96117 15.5505 7.94061 15.5489 7.92007C15.5411 7.82037 15.5133 7.72326 15.4674 7.63443C15.4326 7.56722 15.388 7.50578 15.335 7.45213L15.3276 7.44462L13.3096 5.02263C13.1823 4.86992 12.9995 4.77402 12.8015 4.75601C12.6034 4.73801 12.4064 4.79938 12.2536 4.92663C12.1009 5.05396 12.0051 5.23669 11.9871 5.43466C11.9691 5.63269 12.0305 5.82975 12.1577 5.98254L13.2159 7.25254L5.78271 7.25253C5.5838 7.25253 5.39303 7.33155 5.25238 7.47221C5.11173 7.61286 5.03271 7.80362 5.03271 8.00253C5.03271 8.20145 5.11173 8.39221 5.25238 8.53286C5.39303 8.67352 5.58379 8.75253 5.78271 8.75253L13.1804 8.75253L12.1261 10.0173C11.999 10.1702 11.9377 10.3674 11.9558 10.5653C11.974 10.7634 12.07 10.9461 12.2229 11.0733Z" fill="#E2123C"/>
</svg>
