<svg width="16" height="16" viewBox="0 0 16 16" fill="none" xmlns="http://www.w3.org/2000/svg">
<path fill-rule="evenodd" clip-rule="evenodd" d="M12.2602 4.73199C12.4639 4.56233 12.7266 4.4805 12.9907 4.50451C13.2547 4.52851 13.4984 4.65637 13.6682 4.85999L15.7512 7.35999C15.9134 7.5645 15.9893 7.82435 15.9625 8.08404C15.9358 8.34372 15.8085 8.58265 15.608 8.74978C15.4074 8.9169 15.1495 8.99898 14.8892 8.97846C14.629 8.95795 14.3871 8.83648 14.2152 8.63999L12.1322 6.13999C11.9625 5.93628 11.8807 5.67352 11.9047 5.4095C11.9287 5.14547 12.0566 4.90178 12.2602 4.73199Z" fill="#E2123C"/>
<path fill-rule="evenodd" clip-rule="evenodd" d="M12.2602 11.268C12.0564 11.0984 11.9284 10.8547 11.9042 10.5907C11.88 10.3267 11.9616 10.0638 12.1312 9.86L14.2152 7.36C14.2981 7.25555 14.401 7.16872 14.5179 7.10464C14.6349 7.04055 14.7634 7.0005 14.8961 6.98683C15.0287 6.97317 15.1627 6.98617 15.2903 7.02507C15.4178 7.06397 15.5363 7.12798 15.6387 7.21335C15.7412 7.29871 15.8255 7.4037 15.8868 7.52213C15.948 7.64057 15.985 7.77006 15.9955 7.90299C16.0059 8.03592 15.9897 8.1696 15.9478 8.29617C15.9058 8.42274 15.839 8.53965 15.7512 8.64001L13.6682 11.14C13.4984 11.3436 13.2547 11.4715 12.9907 11.4955C12.7267 11.5195 12.4639 11.4377 12.2602 11.268Z" fill="#E2123C"/>
<path fill-rule="evenodd" clip-rule="evenodd" d="M14.5 8C14.5 8.26522 14.3946 8.51957 14.2071 8.70711C14.0196 8.89464 13.7652 9 13.5 9H7C6.73478 9 6.48043 8.89464 6.29289 8.70711C6.10536 8.51957 6 8.26522 6 8C6 7.73478 6.10536 7.48043 6.29289 7.29289C6.48043 7.10536 6.73478 7 7 7H13.5C13.7652 7 14.0196 7.10536 14.2071 7.29289C14.3946 7.48043 14.5 7.73478 14.5 8ZM0 1C0 0.734784 0.105357 0.48043 0.292893 0.292893C0.48043 0.105357 0.734784 0 1 0H10C10.2652 0 10.5196 0.105357 10.7071 0.292893C10.8946 0.48043 11 0.734784 11 1C11 1.26522 10.8946 1.51957 10.7071 1.70711C10.5196 1.89464 10.2652 2 10 2H1C0.734784 2 0.48043 1.89464 0.292893 1.70711C0.105357 1.51957 0 1.26522 0 1ZM0 15C0 14.7348 0.105357 14.4804 0.292893 14.2929C0.48043 14.1054 0.734784 14 1 14H10C10.2652 14 10.5196 14.1054 10.7071 14.2929C10.8946 14.4804 11 14.7348 11 15C11 15.2652 10.8946 15.5196 10.7071 15.7071C10.5196 15.8946 10.2652 16 10 16H1C0.734784 16 0.48043 15.8946 0.292893 15.7071C0.105357 15.5196 0 15.2652 0 15Z" fill="#E2123C"/>
<path fill-rule="evenodd" clip-rule="evenodd" d="M10 0C10.2652 0 10.5196 0.105357 10.7071 0.292893C10.8946 0.48043 11 0.734784 11 1V4C11 4.26522 10.8946 4.51957 10.7071 4.70711C10.5196 4.89464 10.2652 5 10 5C9.73478 5 9.48043 4.89464 9.29289 4.70711C9.10536 4.51957 9 4.26522 9 4V1C9 0.734784 9.10536 0.48043 9.29289 0.292893C9.48043 0.105357 9.73478 0 10 0ZM10 11C10.2652 11 10.5196 11.1054 10.7071 11.2929C10.8946 11.4804 11 11.7348 11 12V15C11 15.2652 10.8946 15.5196 10.7071 15.7071C10.5196 15.8946 10.2652 16 10 16C9.73478 16 9.48043 15.8946 9.29289 15.7071C9.10536 15.5196 9 15.2652 9 15V12C9 11.7348 9.10536 11.4804 9.29289 11.2929C9.48043 11.1054 9.73478 11 10 11ZM1 0C1.26522 0 1.51957 0.105357 1.70711 0.292893C1.89464 0.48043 2 0.734784 2 1V15C2 15.2652 1.89464 15.5196 1.70711 15.7071C1.51957 15.8946 1.26522 16 1 16C0.734784 16 0.48043 15.8946 0.292893 15.7071C0.105357 15.5196 0 15.2652 0 15V1C0 0.734784 0.105357 0.48043 0.292893 0.292893C0.48043 0.105357 0.734784 0 1 0Z" fill="#E2123C"/>
</svg>
