<svg width="23" height="23" viewBox="0 0 23 23" fill="none" xmlns="http://www.w3.org/2000/svg">
<path fill-rule="evenodd" clip-rule="evenodd" d="M2.43196 0.5337C2.04143 0.143176 1.40827 0.143176 1.01774 0.5337C0.627219 0.924224 0.627219 1.55739 1.01774 1.94791L20.9951 21.9253C21.3857 22.3158 22.0188 22.3158 22.4093 21.9253C22.7999 21.5348 22.7999 20.9016 22.4093 20.5111L16.6422 14.744V13.9138C16.6422 13.3615 17.0899 12.9138 17.6422 12.9138H21.6422C22.1945 12.9138 22.6422 12.4661 22.6422 11.9138C22.6422 11.3615 22.1945 10.9138 21.6422 10.9138H17.6422C17.0899 10.9138 16.6422 10.4661 16.6422 9.91381V6.91381C16.6422 5.80381 15.7522 4.91381 14.6422 4.91381H10.6422C10.0899 4.91381 9.64221 4.4661 9.64221 3.91381C9.64221 2.80381 8.75221 1.91381 7.64221 1.91381H3.81207L2.43196 0.5337ZM5.81207 3.91381L7.64221 5.74395V4.91381C7.64221 4.36153 7.19449 3.91381 6.64221 3.91381H5.81207ZM9.65454 7.75629L14.6422 12.744V7.91381C14.6422 7.36153 14.1945 6.91381 13.6422 6.91381H10.6422C10.1435 6.91381 9.73009 7.27884 9.65454 7.75629ZM13.2884 16.9138L15.2082 18.8336C15.0289 18.8858 14.839 18.9138 14.6422 18.9138H10.6422C10.0899 18.9138 9.64221 19.3615 9.64221 19.9138C9.64221 21.0238 8.75221 21.9138 7.64221 21.9138H3.64221C3.08992 21.9138 2.64221 21.4661 2.64221 20.9138C2.64221 20.3615 3.08992 19.9138 3.64221 19.9138H6.64221C7.19449 19.9138 7.64221 19.4661 7.64221 18.9138V16.9138C7.64221 16.3615 7.19449 15.9138 6.64221 15.9138H3.64221C3.08992 15.9138 2.64221 15.4661 2.64221 14.9138C2.64221 14.3615 3.08992 13.9138 3.64221 13.9138H7.64221C8.75221 13.9138 9.64221 14.8038 9.64221 15.9138C9.64221 16.4661 10.0899 16.9138 10.6422 16.9138H13.2884ZM4.28842 7.91381L6.28842 9.91381H3.64221C3.08992 9.91381 2.64221 9.46609 2.64221 8.91381C2.64221 8.36153 3.08992 7.91381 3.64221 7.91381H4.28842Z" fill="#7300E6"/>
</svg>
