<svg width="12" height="12" viewBox="0 0 12 12" fill="none" xmlns="http://www.w3.org/2000/svg">
<path fill-rule="evenodd" clip-rule="evenodd" d="M11.6066 0.343156C11.2161 -0.0473686 10.5829 -0.0473686 10.1924 0.343156L5.94975 4.5858L1.70711 0.343157C1.31658 -0.0473671 0.683417 -0.0473671 0.292893 0.343157C-0.0976311 0.733681 -0.0976311 1.36685 0.292893 1.75737L4.53554 6.00002L0.292906 10.2427C-0.0976187 10.6332 -0.0976187 11.2663 0.292906 11.6569C0.68343 12.0474 1.31659 12.0474 1.70712 11.6569L5.94975 7.41423L10.1924 11.6569C10.5829 12.0474 11.2161 12.0474 11.6066 11.6569C11.9971 11.2663 11.9971 10.6332 11.6066 10.2427L7.36397 6.00002L11.6066 1.75737C11.9971 1.36684 11.9971 0.73368 11.6066 0.343156Z" fill="white"/>
</svg>
