<svg width="12" height="12" viewBox="0 0 12 12" fill="none" xmlns="http://www.w3.org/2000/svg">
<path fill-rule="evenodd" clip-rule="evenodd" d="M11.6569 0.343154C11.2664 -0.0473701 10.6332 -0.0473701 10.2427 0.343154L6.00001 4.5858L1.75737 0.343156C1.36684 -0.0473686 0.733678 -0.0473686 0.343154 0.343156C-0.0473701 0.73368 -0.0473701 1.36684 0.343154 1.75737L4.5858 6.00002L0.343167 10.2426C-0.0473577 10.6332 -0.0473577 11.2663 0.343167 11.6569C0.733691 12.0474 1.36686 12.0474 1.75738 11.6569L6.00001 7.41423L10.2426 11.6569C10.6332 12.0474 11.2663 12.0474 11.6569 11.6569C12.0474 11.2663 12.0474 10.6332 11.6569 10.2427L7.41423 6.00002L11.6569 1.75737C12.0474 1.36684 12.0474 0.733678 11.6569 0.343154Z" fill="#E2123C"/>
</svg>
