<svg width="25" height="24" viewBox="0 0 25 24" fill="none" xmlns="http://www.w3.org/2000/svg">
<path fill-rule="evenodd" clip-rule="evenodd" d="M14.6248 9.95812C15.7188 8.86416 16.3333 7.38043 16.3333 5.83333C16.3333 4.28624 15.7188 2.80251 14.6248 1.70854C13.5308 0.614582 12.0471 0 10.5 0C8.9529 0 7.46917 0.614582 6.37521 1.70854C5.28125 2.80251 4.66667 4.28624 4.66667 5.83333C4.66667 7.38043 5.28125 8.86416 6.37521 9.95812C7.46917 11.0521 8.9529 11.6667 10.5 11.6667C12.0471 11.6667 13.5308 11.0521 14.6248 9.95812ZM17.7077 14.784C15.8375 13.643 13.2953 12.8333 10.5 12.8333C7.70583 12.8333 5.1625 13.6442 3.29233 14.7828C2.35783 15.3545 1.561 16.0253 0.984667 16.7545C0.417667 17.4732 0 18.3318 0 19.25C0 20.2358 0.478333 21.0117 1.17017 21.567C1.8235 22.092 2.68567 22.4397 3.6015 22.6823C5.4425 23.17 7.8995 23.3333 10.5 23.3333C13.1005 23.3333 15.5575 23.1688 17.3985 22.6823C18.3143 22.4397 19.1765 22.092 19.8298 21.567C20.5205 21.0128 21 20.2358 21 19.25C21 18.3318 20.5823 17.4732 20.0153 16.7557C19.439 16.0253 18.641 15.3533 17.7077 14.784ZM19.6516 7.59099C19.3588 7.2981 18.8839 7.2981 18.591 7.59099C18.2981 7.88388 18.2981 8.35876 18.591 8.65165L20.182 10.2426L18.591 11.8336C18.2981 12.1265 18.2981 12.6014 18.591 12.8943C18.8839 13.1872 19.3588 13.1872 19.6516 12.8943L21.2426 11.3033L22.8336 12.8943C23.1265 13.1872 23.6014 13.1872 23.8943 12.8943C24.1872 12.6014 24.1872 12.1265 23.8943 11.8336L22.3033 10.2426L23.8943 8.65165C24.1872 8.35876 24.1872 7.88388 23.8943 7.59099C23.6014 7.2981 23.1265 7.2981 22.8336 7.59099L21.2426 9.18198L19.6516 7.59099Z" fill="#E2123C"/>
</svg>
