<svg width="26" height="24" viewBox="0 0 26 24" fill="none" xmlns="http://www.w3.org/2000/svg">
<path fill-rule="evenodd" clip-rule="evenodd" d="M14.6248 9.95812C15.7188 8.86416 16.3333 7.38043 16.3333 5.83333C16.3333 4.28624 15.7188 2.80251 14.6248 1.70854C13.5308 0.614582 12.0471 0 10.5 0C8.9529 0 7.46917 0.614582 6.37521 1.70854C5.28125 2.80251 4.66667 4.28624 4.66667 5.83333C4.66667 7.38043 5.28125 8.86416 6.37521 9.95812C7.46917 11.0521 8.9529 11.6667 10.5 11.6667C12.0471 11.6667 13.5308 11.0521 14.6248 9.95812ZM17.7077 14.784C15.8375 13.643 13.2953 12.8333 10.5 12.8333C7.70583 12.8333 5.1625 13.6442 3.29233 14.7828C2.35783 15.3545 1.561 16.0253 0.984667 16.7545C0.417667 17.4732 0 18.3318 0 19.25C0 20.2358 0.478333 21.0117 1.17017 21.567C1.8235 22.092 2.68567 22.4397 3.6015 22.6823C5.4425 23.17 7.8995 23.3333 10.5 23.3333C13.1005 23.3333 15.5575 23.1688 17.3985 22.6823C18.3143 22.4397 19.1765 22.092 19.8298 21.567C20.5205 21.0128 21 20.2358 21 19.25C21 18.3318 20.5823 17.4732 20.0153 16.7557C19.439 16.0253 18.641 15.3533 17.7077 14.784ZM22.75 8.33331C22.75 7.9191 22.4142 7.58331 22 7.58331C21.5858 7.58331 21.25 7.9191 21.25 8.33331V10.5833H19C18.5858 10.5833 18.25 10.9191 18.25 11.3333C18.25 11.7475 18.5858 12.0833 19 12.0833H21.25V14.3333C21.25 14.7475 21.5858 15.0833 22 15.0833C22.4142 15.0833 22.75 14.7475 22.75 14.3333V12.0833H25C25.4142 12.0833 25.75 11.7475 25.75 11.3333C25.75 10.9191 25.4142 10.5833 25 10.5833H22.75V8.33331Z" fill="white"/>
</svg>
