<svg width="12" height="12" viewBox="0 0 12 12" fill="none" xmlns="http://www.w3.org/2000/svg">
<path fill-rule="evenodd" clip-rule="evenodd" d="M11.6066 0.292893C11.2161 -0.0976311 10.5829 -0.0976311 10.1924 0.292893L5.94975 4.53554L1.70711 0.292895C1.31658 -0.0976295 0.683417 -0.0976295 0.292893 0.292895C-0.0976311 0.683419 -0.0976311 1.31658 0.292893 1.70711L4.53554 5.94975L0.292906 10.1924C-0.0976187 10.5829 -0.0976187 11.2161 0.292906 11.6066C0.68343 11.9971 1.31659 11.9971 1.70712 11.6066L5.94975 7.36397L10.1924 11.6066C10.5829 11.9971 11.2161 11.9971 11.6066 11.6066C11.9971 11.2161 11.9971 10.5829 11.6066 10.1924L7.36397 5.94975L11.6066 1.70711C11.9971 1.31658 11.9971 0.683417 11.6066 0.292893Z" fill="black"/>
</svg>
